<svg xmlns="http://www.w3.org/2000/svg" version="1.1" xmlns:xlink="http://www.w3.org/1999/xlink" viewBox="0 0 200 200" width="200" height="200"><metadata><rdf:RDF xmlns:rdf="http://www.w3.org/1999/02/22-rdf-syntax-ns#" xmlns:dc="http://purl.org/dc/elements/1.1/"><rdf:Description><dc:creator>RealFaviconGenerator</dc:creator><dc:source>https://realfavicongenerator.net</dc:source></rdf:Description></rdf:RDF></metadata><rect width="200" height="200" fill="url('#gradient')"></rect><defs><linearGradient id="gradient" gradientTransform="rotate(45 0.5 0.5)"><stop offset="0%" stop-color="#1d3d53"></stop><stop offset="100%" stop-color="#191819"></stop></linearGradient></defs><g><g fill="#ffffff" transform="matrix(3.1988892745574455,0,0,3.1988892745574455,6.5724537429276495,123.49947512129123)" stroke="#1a1b1a" stroke-width="0.2"><path d="M6.85 0L1.07 0L1.07-14.22L6.18-14.22Q8.93-14.22 10.36-13.21Q11.79-12.21 11.79-10.29L11.79-10.29Q11.79-9.19 11.28-8.41Q10.77-7.63 9.79-7.26L9.79-7.26Q10.90-6.96 11.49-6.16Q12.09-5.36 12.09-4.21L12.09-4.21Q12.09-2.12 10.77-1.07Q9.44-0.02 6.85 0L6.85 0ZM6.90-6.04L4.50-6.04L4.50-2.64L6.75-2.64Q7.68-2.64 8.17-3.06Q8.67-3.49 8.67-4.26L8.67-4.26Q8.67-6.04 6.90-6.04L6.90-6.04ZM4.50-11.57L4.50-8.29L6.29-8.29Q7.41-8.30 7.89-8.70Q8.37-9.10 8.37-9.88L8.37-9.88Q8.37-10.78 7.85-11.18Q7.33-11.57 6.18-11.57L6.18-11.57L4.50-11.57ZM17.29-10.57L17.29 0L13.99 0L13.99-10.57L17.29-10.57ZM13.80-13.29L13.80-13.29Q13.80-13.99 14.31-14.44Q14.81-14.89 15.63-14.89Q16.44-14.89 16.94-14.44Q17.45-13.99 17.45-13.29Q17.45-12.59 16.94-12.14Q16.44-11.69 15.63-11.69Q14.81-11.69 14.31-12.14Q13.80-12.59 13.80-13.29ZM29.13 0L24.45 0L24.45-14.22L29.03-14.22Q30.92-14.22 32.42-13.36Q33.93-12.51 34.77-10.95Q35.62-9.39 35.63-7.46L35.63-7.46L35.63-6.81Q35.63-4.85 34.80-3.31Q33.97-1.76 32.48-0.88Q30.98-0.01 29.13 0L29.13 0ZM29.03-11.57L27.88-11.57L27.88-2.64L29.07-2.64Q30.55-2.64 31.34-3.69Q32.13-4.74 32.13-6.81L32.13-6.81L32.13-7.42Q32.13-9.48 31.34-10.53Q30.55-11.57 29.03-11.57L29.03-11.57ZM42.34 0.20L42.34 0.20Q39.91 0.20 38.41-1.25Q36.90-2.71 36.90-5.03L36.90-5.03L36.90-5.30Q36.90-6.92 37.50-8.16Q38.11-9.40 39.26-10.08Q40.41-10.76 41.99-10.76L41.99-10.76Q44.22-10.76 45.51-9.38Q46.80-8.00 46.80-5.53L46.80-5.53L46.80-4.25L40.25-4.25Q40.43-3.36 41.03-2.85Q41.62-2.34 42.57-2.34L42.57-2.34Q44.13-2.34 45.01-3.44L45.01-3.44L46.51-1.66Q45.90-0.81 44.77-0.31Q43.64 0.20 42.34 0.20ZM41.97-8.22L41.97-8.22Q40.53-8.22 40.25-6.31L40.25-6.31L43.57-6.31L43.57-6.56Q43.59-7.35 43.17-7.79Q42.75-8.22 41.97-8.22ZM50.57-10.57L52.21-3.92L53.88-10.57L57.34-10.57L53.90 0L50.54 0L47.09-10.57L50.57-10.57Z"></path></g></g></svg>